<?xml version="1.0" encoding="UTF-8" standalone="no"?>
<!DOCTYPE svg PUBLIC "-//W3C//DTD SVG 1.1//EN" "http://www.w3.org/Graphics/SVG/1.1/DTD/svg11.dtd">
<svg width="100%" height="100%" viewBox="0 0 1801 1887" version="1.1" xmlns="http://www.w3.org/2000/svg" xmlns:xlink="http://www.w3.org/1999/xlink" xml:space="preserve" xmlns:serif="http://www.serif.com/" style="fill-rule:evenodd;clip-rule:evenodd;stroke-linejoin:round;stroke-miterlimit:2;">
    <g transform="matrix(1,0,0,1,-1603.042383,-706.154924)">
        <g transform="matrix(4.777128,0,0,4.777128,34.425637,288.063436)">
            <path d="M425.515,197.298C435.848,196.998 462.305,197.209 465.504,197.235C468.822,197.261 468.839,198.195 468.856,201.5C469.033,236.036 468.626,236.448 469.733,237.118C470.521,237.595 470.585,237.367 472.49,237.581C472.634,237.597 473.907,237.74 474.266,237.929C474.939,238.285 474.943,239.374 474.943,239.512C474.945,240.083 467.611,259.897 466.957,261.664C466.58,262.683 466.736,262.736 462.426,274.472C459.009,283.777 459.091,283.798 458.79,284.604C451.993,302.771 445.996,320.14 445.155,321.245C444.394,322.243 444.171,322.537 429.502,322.282C427.203,322.242 426.71,321.845 426.42,321.781C426.735,320.835 427.245,320.94 427.133,318.512C427.107,317.961 427.089,316.68 427.087,316.52C426.792,295.343 427.053,295.344 427.001,293.503C426.786,285.765 427.084,283.557 426.607,282.433C426.29,281.686 424.219,281.344 424.153,281.371C423.719,281.544 423.79,282.35 423.356,282.523C422.802,282.192 422.954,282.015 422.393,281.68C422.33,281.642 422.104,281.507 421.51,281.42C420.765,281.311 392.09,281.641 390.5,281.648C387.492,281.659 386.981,281.071 386.334,280.867C386.663,280.315 387.366,280.053 387.694,279.5C387.703,279.486 387.481,240.981 387.396,239.531C387.318,238.186 386.518,237.482 386.5,237.439C391.62,237.26 400.876,237.428 416.5,237.353C421.534,237.329 421.672,237.561 423.19,236.419C423.638,236.684 423.677,237.404 424.125,237.669C425.41,238.43 426.188,237.478 426.299,237.341C426.827,236.695 426.581,236.585 426.248,205.501C426.198,200.887 426.193,200.904 426.189,200.504C426.167,198.29 425.832,198.363 425.515,197.298Z" style="fill:rgb(75,187,81);"/>
        </g>
        <g transform="matrix(4.777128,0,0,4.777128,34.425637,288.063436)">
            <path d="M554.561,220.146C556.716,220.103 556.702,220.107 581.5,220.094C594.11,220.088 607.124,218.813 618.27,228.767C632.29,241.288 631.684,266.47 613.682,276.833C607.648,280.306 606.793,279.344 606.487,280.494C606.192,281.604 606.723,282.086 608.291,284.622C610.454,288.12 628.134,316.355 629.124,317.745C630.18,319.228 630.99,319.467 629.712,320.771C629.234,321.259 629.151,321.07 628.471,321.064C615.389,320.951 613.108,321.317 611.569,320.378C611.407,320.28 611.327,320.077 611.165,319.978C611.641,318.967 612.198,319.43 612.667,318.434C612.697,318.369 591.839,285.514 591.732,285.353C591.571,285.112 591.59,284.783 591.449,284.53C591.339,284.331 590.127,282.157 589.523,282.447C588.935,282.729 588.672,283.489 588.084,283.772C586.72,282.547 586.466,282.506 583.5,282.55C572.5,282.711 571.501,282.485 570.671,282.869C569.304,283.501 569.805,284.319 569.777,307.501C569.763,319.76 569.999,320.069 568.78,320.946C568.185,321.373 566.254,321.302 564.498,321.315C556.006,321.382 556.013,321.208 554.432,320.926C554.585,320.347 555.256,319.998 555.409,319.419C555.431,319.337 555.051,318.901 554.963,317.459C554.896,316.379 554.871,235.159 554.896,230.499C554.94,222.212 555.1,222.211 554.988,221.5C554.914,221.032 554.635,220.613 554.561,220.146ZM592.464,267.185C592.653,267.157 592.829,267.131 592.994,267.107C593.094,267.043 593.201,266.991 593.371,267.052C595.305,266.77 595.33,266.774 595.547,266.737C599.741,266.032 603.734,263.59 605.167,262.182C605.885,261.476 609.926,257.506 609.862,250.497C609.777,241.217 602.721,237.236 602.23,236.881C599.543,235.572 598.978,235.226 595.474,234.674C592.408,234.192 571.315,234.313 570.554,234.635C569.293,235.168 569.394,236.106 569.411,246.5C569.444,266.476 569.23,266.994 570.517,267.456C570.856,267.577 582.588,267.957 592.464,267.185Z" style="fill:rgb(53,151,199);"/>
        </g>
        <g transform="matrix(4.777128,0,0,4.777128,34.425637,288.063436)">
            <path d="M457.217,317.167C457.36,316.776 457.532,316.308 457.729,315.77C457.523,316.472 457.374,316.805 457.217,317.167ZM500.493,243.506L499.875,241.466C500.182,241.323 500.334,240.942 500.641,240.799C501.259,240.51 501.24,240.789 501.661,241.302C502.053,241.78 502.164,241.705 502.407,242.55C502.843,244.071 503.131,243.944 503.56,245.469C503.645,245.77 503.645,246.096 503.77,246.383C503.827,246.515 504.015,246.553 504.085,246.678C504.294,247.05 504.212,247.082 506.026,251.638C507.01,254.108 506.642,254.206 506.737,254.415C506.801,254.554 507.06,254.501 507.144,254.63C507.226,254.757 507.053,254.805 507.677,256.445C507.828,256.841 508.082,257.191 508.239,257.585C508.898,259.238 508.571,259.303 508.633,259.442C508.698,259.588 508.95,259.571 509.034,259.707C509.066,259.758 509.561,261.276 509.599,261.45C509.667,261.762 509.598,262.108 509.731,262.398C509.801,262.551 510.066,262.526 510.157,262.668C510.213,262.755 512.385,269.098 514.176,273.6C514.533,274.497 514.298,274.552 514.645,275.447C514.658,275.48 515.209,276.267 515.548,277.472C515.628,277.758 515.659,278.06 515.767,278.337C515.827,278.49 516.011,278.583 516.044,278.744C516.089,278.959 515.959,279.183 515.986,279.401C516.03,279.752 516.355,280.087 516.256,280.426C516.216,280.565 515.922,281.575 514.612,281.181C514.423,281.124 514.447,281.103 512.388,280.131C513.429,279.546 513.465,279.596 513.507,279.502C513.867,278.697 511.435,273.263 510.776,271.395C509.357,267.371 509.265,267.423 507.81,263.394C501.87,246.948 501.573,247.069 501.203,245.596C500.932,244.52 500.946,244.529 500.493,243.506Z" style="fill:rgb(52,151,199);"/>
        </g>
        <g transform="matrix(4.777128,0,0,4.777128,34.425637,288.063436)">
            <path d="M593.371,267.052C593.252,267.069 593.127,267.088 592.994,267.107C593.094,267.043 593.201,266.991 593.371,267.052Z" style="fill:rgb(253,253,253);"/>
        </g>
        <g transform="matrix(4.777128,0,0,4.777128,34.425637,288.063436)">
            <path d="M563.536,402.44C563.124,402.77 562.912,403.308 562.5,403.638C561.629,404.337 561.527,403.943 560.492,403.564C555.476,401.73 552.981,400.82 541.479,401.045C528.355,401.303 511.066,407.647 508.527,408.579C490.88,415.054 478.971,410.011 469.501,413.501C468.436,413.893 468.521,414.044 467.492,414.492C464.24,415.905 463.704,419.185 463.945,420.525C464.006,420.864 464.173,421.176 464.253,421.511C464.455,422.354 464.439,422.393 464.41,422.465C464.058,423.322 463.637,423.013 463.285,423.87C460.704,421.774 460.516,422.067 457.869,420.035C455.489,418.209 452.423,413.659 455.622,409.604C459.937,404.133 470.839,406.668 484.526,405.868C490.851,405.498 500.131,401.628 503.512,400.536C512.384,397.671 518.204,396.751 519.507,396.545C521.169,396.283 532.269,394.528 540.509,395.398C553.347,396.753 557.056,398.542 563.536,402.44Z" style="fill:rgb(52,152,68);"/>
        </g>
        <g transform="matrix(4.777128,0,0,4.777128,34.425637,288.063436)">
            <path d="M617.353,352.966C617.084,352.67 616.197,352.873 615.937,350.462C615.898,350.094 615.883,333.014 615.907,332.522C616.036,329.841 616.811,329.934 619.495,329.865C625.54,329.708 627.842,330.066 628.559,330.177C632.595,330.803 635.302,334.036 633.95,338.635C633.307,340.824 632.651,341.029 634.019,342.847C636.433,346.055 635.437,350.346 632.353,352.22C630.35,353.437 622.89,353.662 617.353,352.966ZM628.085,344.667C627.426,344.371 627.229,343.837 624.496,343.806C623.342,343.793 623.19,343.571 622.43,344.452C621.95,345.008 622.134,346.371 622.157,346.538C622.5,349.079 625.155,348.335 627.157,348.027C627.406,347.724 627.838,347.609 628.087,347.306C628.629,346.647 628.446,345.656 628.419,345.512C628.364,345.214 628.141,344.965 628.085,344.667ZM626.222,338.163C627.038,337.419 627.068,337.449 627.103,337.36C627.155,337.228 627.498,336.35 627.064,335.586C627.022,335.513 625.16,334.473 623.546,334.742C621.606,335.064 621.742,338.402 623.47,338.687C623.992,338.772 626.006,338.222 626.222,338.163Z" style="fill:rgb(57,139,184);"/>
        </g>
        <g transform="matrix(4.777128,0,0,4.777128,34.425637,288.063436)">
            <path d="M443.052,338.509C442.982,336.503 442.935,336.517 442.986,334.499C443.054,331.783 442.782,330.85 445.503,330.789C452.181,330.64 458.858,330.302 461.2,335.637C462.261,338.051 461.176,341.961 460.791,342.686C459.465,345.183 457.964,344.859 458.066,346.544C458.093,346.983 460.86,351.302 461.119,351.706C461.241,351.897 462.74,354.236 459.487,354.016C458.75,353.966 456.286,354.405 454.466,351.524C454.276,351.224 452.115,347.804 452.094,347.772C451.964,347.577 450.664,345.63 449.474,346.454C448.499,347.129 448.779,347.332 448.74,348.515C448.655,351.178 449.293,354.018 446.481,354.093C442.915,354.188 442.938,353.076 442.972,349.5C443.07,339.372 443.034,339.388 443.052,338.509ZM454.869,339.778C454.934,339.611 455.123,339.512 455.188,339.345C456.407,336.222 451.556,335.265 449.394,336.368C448.492,336.828 448.719,339.359 448.736,339.468C449.141,342.088 453.848,340.622 454.342,340.293C454.547,340.157 454.665,339.914 454.869,339.778Z" style="fill:rgb(56,140,186);"/>
        </g>
        <g transform="matrix(4.777128,0,0,4.777128,34.425637,288.063436)">
            <path d="M554.561,220.146C554.635,220.613 554.914,221.032 554.988,221.5C555.1,222.211 554.94,222.212 554.896,230.499C554.871,235.159 554.896,316.379 554.963,317.459C555.051,318.901 555.431,319.337 555.409,319.419C555.256,319.998 554.585,320.347 554.432,320.926C553.379,320.397 552.208,320.614 552.128,317.506C552.09,316.025 552.084,309.223 552.084,308.502C552.033,247.775 551.869,247.778 551.962,242.499C552.291,223.908 551.033,220.605 553.442,220.139C553.808,220.068 554.195,220.216 554.561,220.146Z" style="fill:rgb(33,86,109);"/>
        </g>
        <g transform="matrix(4.777128,0,0,4.777128,34.425637,288.063436)">
            <path d="M403.433,331.366C403.461,331.357 404.327,330.893 405.531,330.703C414.401,329.305 418.627,336.661 415.511,337.534C412.362,338.416 410.753,335.686 408.504,335.674C408.263,335.672 405.994,335.66 406.137,337.539C406.264,339.197 410.651,339.787 413.609,341.3C418.365,343.732 418.161,348.758 416.916,350.749C413.04,356.944 402.657,355.06 400.301,350.618C400.078,350.197 397.74,346.336 401.499,346.309C404.229,346.29 405.323,348.241 405.563,348.425C408.11,350.368 410.805,348.834 411.149,348.29C412.514,346.129 407.642,344.742 404.47,343.585C400.003,341.956 399.756,338.145 399.727,337.486C399.549,333.326 402.566,331.948 403.433,331.366Z" style="fill:rgb(57,140,189);"/>
        </g>
        <g transform="matrix(4.777128,0,0,4.777128,34.425637,288.063436)">
            <path d="M470.376,331.197C473.403,330.322 473.394,330.061 476.512,330.406C479.601,330.747 481.304,332.021 481.654,332.283C484.23,334.21 485.17,335.424 482.725,336.869C479.505,338.771 479.224,335.674 475.517,335.919C468.859,336.36 469.255,343.671 469.834,345.391C471.454,350.201 476.388,348.681 476.566,348.66C478.33,350.196 478.258,350.317 478.458,350.307C478.899,350.286 479.126,349.725 479.494,349.482C479.72,349.333 480.008,349.296 480.228,349.138C480.877,348.672 481.982,346.805 480.618,346.265C479.26,345.727 478.76,346.463 478.582,346.482C477.937,346.244 478.032,346.098 477.372,345.855C476.914,345.686 476.896,345.843 476.416,345.684C475.57,345.403 475.29,344.741 475.24,344.624C475.117,344.334 473.831,341.301 476.535,340.899C476.72,340.871 482.459,340.91 482.481,340.912C484.249,341.007 484.562,340.926 485.11,342.612C485.279,343.129 485.275,347.805 485.167,348.452C484.426,352.882 477.417,355.698 471.462,353.603C466.736,351.941 465.463,349.127 465.167,348.726C466.193,347.16 467.019,347.239 466.335,345.525C466.191,345.163 465.895,344.856 465.827,344.473C465.378,341.956 466.241,338.923 466.373,338.458C466.567,337.777 466.596,337.799 467.006,337.22C467.057,337.149 467.458,336.326 468.368,335.392C470.234,333.477 470.167,333.43 470.369,333.318C470.669,333.154 471.168,333.601 471.395,333.346C471.395,333.346 470.457,331.369 470.376,331.197Z" style="fill:rgb(60,144,191);"/>
        </g>
        <g transform="matrix(4.777128,0,0,4.777128,34.425637,288.063436)">
            <path d="M492.544,220.171C492.535,220.357 492.429,222.489 492.429,222.489C492.327,222.895 458.995,311.503 458.934,311.675C458.855,311.896 458.303,313.745 457.776,315.609C457.345,317.132 457.159,317.05 456.712,318.582C456.625,318.878 456.633,319.232 456.428,319.462C456.395,319.498 456.342,319.26 455.829,319.566C454.872,320.136 455.013,320.306 454.047,320.882C453.998,320.702 453.79,320.594 453.74,320.414C453.496,319.518 454.537,316.853 454.652,316.557C458.999,305.434 489.827,221.953 490.242,221.336C491.26,219.821 492.1,220.298 492.544,220.171Z" style="fill:rgb(27,83,108);"/>
        </g>
        <g transform="matrix(4.777128,0,0,4.777128,34.425637,288.063436)">
            <path d="M528.515,330.292C531.315,330.534 532.373,330.056 534.654,335.426C534.753,335.659 534.737,335.656 535.864,338.346C536.003,338.678 539.425,345.969 540.585,349.455C540.683,349.748 540.735,350.056 540.85,350.343C541.1,350.968 541.164,350.938 541.228,351.61C541.324,352.615 541.374,352.586 541.521,353.572C539.044,353.593 536.618,354.138 535.386,351.561C534.069,348.806 533.469,349.165 529.499,349.125C526.007,349.09 525.339,348.519 523.669,351.589C523.033,352.756 522.443,354.13 518.476,353.693C518.158,353.657 517.877,353.442 517.559,353.406C518.145,353.002 518.033,352.899 518.611,352.5C519.68,351.762 519.785,351.927 519.843,351.831C520.052,351.486 519.628,351.012 519.746,350.626C519.803,350.439 520.159,350.539 520.283,350.387C520.471,350.155 520.533,349.842 520.615,349.555C520.701,349.254 520.652,348.915 520.784,348.631C520.849,348.491 521.086,348.498 521.167,348.366C521.33,348.103 521.391,347.789 521.487,347.495C521.697,346.852 521.7,346.876 522.027,346.301C522.178,346.033 522.282,345.741 522.398,345.456C522.825,344.408 522.856,344.444 523.343,343.439C524.129,341.818 523.634,341.731 523.701,341.596C523.793,341.411 524.152,341.55 524.288,341.393C524.482,341.169 524.517,340.845 524.599,340.56C524.681,340.275 524.648,339.954 524.779,339.688C524.863,339.517 525.11,339.475 525.213,339.314C525.367,339.073 525.433,338.785 525.527,338.515C525.749,337.878 525.759,337.903 526.089,337.317C526.196,337.128 527.229,334.685 527.326,334.456C528.116,332.588 528.14,332.615 528.185,332.446C528.267,332.141 528.111,331.812 528.158,331.5C528.222,331.085 528.452,330.707 528.515,330.292ZM531.423,343.472C531.402,343.328 531.62,342.74 531.164,341.647C531.098,341.489 530.393,339.799 530.275,339.699C530.072,339.526 529.708,339.652 529.504,339.479C529.253,339.724 528.948,339.431 528.478,340.483C528.199,341.107 528.197,341.092 527.902,341.698C526.595,344.382 529.272,344.111 529.501,344.088C530.921,343.945 531.154,343.558 531.423,343.472Z" style="fill:rgb(60,149,194);"/>
        </g>
        <g transform="matrix(4.777128,0,0,4.777128,34.425637,288.063436)">
            <path d="M514.795,347.124C515.092,347.406 515.184,347.242 515.48,347.523C515.53,347.571 515.484,347.584 515.965,348.235C516.07,348.378 516.338,348.468 516.307,348.643C516.278,348.809 515.904,348.936 515.433,350.437C515.149,351.347 514.992,351.249 514.6,351.638C511.59,354.624 504.898,355.167 500.376,351.669C497.486,349.434 494.776,346.005 496.184,338.41C497.331,332.22 504.727,328.185 511.294,330.966C511.892,331.219 518.825,335.007 515.242,337.049C512.61,338.549 511.331,336.873 511.261,336.823C504.691,332.129 499.191,341.562 503.037,346.807C505.241,349.813 507.234,348.752 508.514,348.529C510.285,349.955 510.22,350.071 510.414,350.059C510.833,350.033 511.106,349.583 511.476,349.385C511.746,349.24 512.065,349.193 512.328,349.034C512.446,348.963 512.468,348.777 512.591,348.712C512.845,348.578 513.182,348.629 513.415,348.461C513.935,348.087 514.275,347.498 514.795,347.124Z" style="fill:rgb(57,141,188);"/>
        </g>
        <g transform="matrix(4.777128,0,0,4.777128,34.425637,288.063436)">
            <path d="M438.423,330.827C438.715,331.146 439.276,331.12 439.569,331.44C440.328,332.27 440.225,332.428 440.09,345.497C439.987,355.452 429.739,354.984 427.536,354.355C420.543,352.361 419.902,347.849 419.683,342.498C419.586,340.127 419.579,332.522 419.581,332.511C419.707,331.459 420.184,331.302 420.259,331.154C420.492,331.082 420.402,330.742 422.49,330.733C422.636,330.732 423.781,330.727 424.304,330.938C427.021,332.031 424.043,345.583 426.787,348.199C428.24,349.584 428.462,349.13 430.454,349.212C432.382,351.425 432.264,351.617 432.51,351.571C433.035,351.474 432.954,350.537 433.393,350.233C433.664,350.045 434.084,350.42 434.379,350.275C434.774,350.08 435.037,349.674 435.276,349.303C435.426,349.072 435.389,348.756 435.517,348.512C435.72,348.126 436.082,347.833 436.258,347.434C436.456,346.986 436.538,343.814 436.546,343.498C436.567,342.701 436.779,334.488 436.66,333.529C436.614,333.161 436.08,332.835 436.239,332.5C436.448,332.059 437.113,332.054 437.5,331.758C437.847,331.492 438.076,331.093 438.423,330.827Z" style="fill:rgb(57,138,184);"/>
        </g>
        <g transform="matrix(4.777128,0,0,4.777128,34.425637,288.063436)">
            <path d="M571.476,330.321C574.916,330.215 575.985,330.077 576.113,333.515C576.137,334.178 576.112,334.842 576.115,335.505C576.121,337.402 576.032,338.593 578.489,338.671C582.322,338.794 583.033,338.515 584.013,338.275C584.579,338.509 584.961,339.084 585.527,339.319C586.624,339.772 586.761,337.722 586.773,337.549C586.783,337.4 586.864,332.571 586.841,332.434C586.786,332.108 586.547,331.828 586.501,331.5C586.437,331.046 586.578,330.579 586.514,330.126C588.777,330.129 590.349,329.699 590.566,332.494C590.757,334.94 590.328,338.391 590.768,348.499C590.926,352.11 591.112,353.449 587.503,353.219C586.068,353.128 585.581,352.732 585.374,352.679C585.676,352.243 586.138,351.936 586.44,351.5C586.637,351.217 586.68,350.85 586.849,350.55C586.889,350.48 587.05,350.499 587.051,350.419C587.051,350.109 586.876,349.819 586.852,349.509C586.694,347.482 586.916,347.493 586.811,345.475C586.801,345.299 586.694,343.258 585.5,343.7C585.033,343.874 584.742,344.383 584.274,344.557C582.969,343.697 582.742,343.667 578.514,343.769C576.329,343.822 576.181,344.308 576.146,346.495C576.123,347.874 576.297,351.866 575.609,352.595C575.035,353.203 573.666,353.2 573.49,353.199C570.897,353.192 570.77,352.598 570.492,352.507C570.891,352.06 571.584,351.948 571.983,351.5C572.312,351.131 572.289,348.753 572.286,348.513C572.275,347.313 572.202,339.896 572.268,333.51C572.288,331.499 571.94,331.571 571.476,330.321Z" style="fill:rgb(62,150,196);"/>
        </g>
        <g transform="matrix(4.777128,0,0,4.777128,34.425637,288.063436)">
            <path d="M594.445,330.174C596.403,330.123 596.39,330.111 596.559,330.119C596.712,330.126 597.948,330.183 598.398,330.622C599.412,331.611 598.935,331.862 599.178,343.512C599.297,349.253 601.89,349.129 605.137,348.064C605.939,348.494 605.692,348.792 606.5,349.226C606.559,349.257 606.955,349.47 607.34,349.245C607.537,349.13 607.407,348.758 607.572,348.6C607.755,348.422 608.099,348.501 608.288,348.329C609.659,347.085 609.572,341.449 609.581,337.501C609.59,333.256 609.746,332.416 609.267,331.5C609.018,331.024 608.651,330.615 608.402,330.139C608.723,330.124 612.403,329.658 613.032,330.847C613.422,331.586 613.597,344.453 612.941,347.616C611.549,354.332 603.468,354.077 601.474,353.632C597.852,352.823 596.74,351.806 596.413,351.627C597.331,349.684 597.434,349.72 597.399,349.538C597.379,349.433 597.344,349.456 596.58,348.477C596.31,348.132 595.941,347.847 595.765,347.447C595.235,346.244 595.806,332.724 595.246,331.5C595.031,331.03 594.659,330.644 594.445,330.174Z" style="fill:rgb(63,149,196);"/>
        </g>
        <g transform="matrix(4.777128,0,0,4.777128,34.425637,288.063436)">
            <path d="M544.48,330.317C547.227,330.388 547.349,330.02 548.308,330.749C549.096,331.349 549.107,333.268 549.108,333.497C549.182,347.306 548.749,347.558 549.639,348.323C550.996,349.491 559.061,347.7 560.061,349.73C560.502,350.626 560.446,352.832 559.426,353.345C559.027,353.546 552.339,353.882 544.504,353.462C544.572,353.3 545.356,351.441 545.356,351.441C545.359,351.425 545.31,350.744 545.3,349.503C545.165,332.896 545.777,332.818 545.196,331.5C545.01,331.078 544.666,330.739 544.48,330.317Z" style="fill:rgb(63,148,193);"/>
        </g>
        <g transform="matrix(4.777128,0,0,4.777128,34.425637,288.063436)">
            <path d="M487.858,333.498C487.945,333.002 487.255,329.973 491.503,330.478C494.371,330.819 494.072,333.163 493.699,338.505C492.938,349.406 495.867,353.57 491.529,353.779C489.279,353.887 488.254,353.582 487.955,351.452C487.895,351.032 487.861,334.935 487.858,333.498Z" style="fill:rgb(60,137,179);"/>
        </g>
        <g transform="matrix(4.777128,0,0,4.777128,34.425637,288.063436)">
            <path d="M425.515,197.298C425.832,198.363 426.167,198.29 426.189,200.504C426.193,200.904 426.198,200.887 426.248,205.501C426.581,236.585 426.827,236.695 426.299,237.341C426.188,237.478 425.41,238.43 424.125,237.669C423.677,237.404 423.638,236.684 423.19,236.419C423.585,231.22 422.853,205.309 422.945,200.497C423.016,196.775 424.439,197.547 425.515,197.298Z" style="fill:rgb(40,98,49);"/>
        </g>
        <g transform="matrix(4.777128,0,0,4.777128,34.425637,288.063436)">
            <path d="M423.356,282.523C423.79,282.35 423.719,281.544 424.153,281.371C424.219,281.344 426.29,281.686 426.607,282.433C427.084,283.557 426.786,285.765 427.001,293.503C427.053,295.344 426.792,295.343 427.087,316.52C427.089,316.68 427.107,317.961 427.133,318.512C427.245,320.94 426.735,320.835 426.42,321.781C424.919,320.783 424.491,321.117 423.922,319.402C423.606,318.452 423.932,290.03 423.356,282.523Z" style="fill:rgb(34,97,44);"/>
        </g>
        <g transform="matrix(4.777128,0,0,4.777128,34.425637,288.063436)">
            <path d="M386.5,237.439C386.518,237.482 387.318,238.186 387.396,239.531C387.481,240.981 387.703,279.486 387.694,279.5C387.366,280.053 386.663,280.315 386.334,280.867C386.033,280.531 385.913,280.71 385.614,280.377C385.55,280.305 385.207,279.921 384.982,279.357C384.864,279.062 384.832,276.725 384.829,276.496C384.789,273.536 384.36,242.069 384.462,239.498C384.469,239.323 384.522,238.001 385.535,237.599C385.838,237.478 386.197,237.559 386.5,237.439Z" style="fill:rgb(35,93,46);"/>
        </g>
        <g transform="matrix(4.777128,0,0,4.777128,34.425637,288.063436)">
            <path d="M602.23,236.881C602.68,236.685 603.05,236.332 603.5,236.136C604.487,235.708 604.455,236.216 606.483,237.53C607.977,238.498 607.949,238.532 609.09,239.904C609.579,240.492 609.372,240.605 609.814,241.224C609.941,241.402 610.189,241.463 610.327,241.633C612.428,244.229 616.285,256.429 607.229,264.116C606.826,264.458 605.013,265.996 601.483,267.394C601.323,267.457 600.296,267.863 599.467,268.144C598.37,268.516 597.195,268.056 596.5,268.064C595.832,268.072 595.136,268.397 594.5,268.193C593.74,267.949 594.167,267.442 593.442,267.083C592.967,266.848 592.94,267.421 592.464,267.185C595.302,266.768 595.301,266.779 595.547,266.737C599.741,266.032 603.734,263.59 605.167,262.182C605.885,261.476 609.926,257.506 609.862,250.497C609.777,241.217 602.721,237.236 602.23,236.881Z" style="fill:rgb(31,94,124);"/>
        </g>
        <g transform="matrix(4.777128,0,0,4.777128,34.425637,288.063436)">
            <path d="M588.084,283.772C588.672,283.489 588.935,282.729 589.523,282.447C590.127,282.157 591.339,284.331 591.449,284.53C591.59,284.783 591.571,285.112 591.732,285.353C591.839,285.514 612.697,318.369 612.667,318.434C612.198,319.43 611.641,318.967 611.165,319.978C610.305,319.03 589.167,285.424 588.084,283.772Z" style="fill:rgb(35,93,122);"/>
        </g>
        <g transform="matrix(4.777128,0,0,4.777128,34.425637,288.063436)">
            <path d="M499.875,241.466C500.182,241.323 500.334,240.942 500.641,240.799C501.259,240.51 501.24,240.789 501.661,241.302C502.053,241.78 502.164,241.705 502.407,242.55C502.843,244.071 503.131,243.944 503.56,245.469C503.645,245.77 503.645,246.096 503.77,246.383C503.827,246.515 504.015,246.553 504.085,246.678C504.294,247.05 504.212,247.082 506.026,251.638C507.01,254.108 506.642,254.206 506.737,254.415C506.801,254.554 507.06,254.501 507.144,254.63C507.226,254.757 507.053,254.805 507.677,256.445C507.828,256.841 508.082,257.191 508.239,257.585C508.898,259.238 508.571,259.303 508.633,259.442C508.698,259.588 508.95,259.571 509.034,259.707C509.066,259.758 509.561,261.276 509.599,261.45C509.667,261.762 509.598,262.108 509.731,262.398C509.801,262.551 510.066,262.526 510.157,262.668C510.213,262.755 512.385,269.098 514.176,273.6C514.533,274.497 514.298,274.552 514.645,275.447C514.658,275.48 515.209,276.267 515.548,277.472C515.628,277.758 515.659,278.06 515.767,278.337C515.827,278.49 516.011,278.583 516.044,278.744C516.089,278.959 515.959,279.183 515.986,279.401C516.03,279.752 516.355,280.087 516.256,280.426C516.216,280.565 515.922,281.575 514.612,281.181C514.423,281.124 514.447,281.103 512.388,280.131C513.429,279.546 513.465,279.596 513.507,279.502C513.867,278.697 511.435,273.263 510.776,271.395C509.357,267.371 509.265,267.423 507.81,263.394C501.87,246.948 501.573,247.069 501.203,245.596C500.932,244.52 500.946,244.529 500.493,243.506C500.287,242.826 500.081,242.146 499.875,241.466Z" style="fill:rgb(39,98,124);"/>
        </g>
        <g transform="matrix(4.777128,0,0,4.777128,34.425637,288.063436)">
            <path d="M519.13,295.667C519.633,295.625 519.922,294.925 520.424,294.882C520.84,294.847 521.246,295.162 521.534,295.464C521.739,295.679 529.668,317.106 529.779,317.407C530.249,318.684 530.575,318.686 530.21,319.5C529.997,319.974 529.548,320.315 529.335,320.789C528.704,320.062 528.545,320.185 527.732,318.396C527.702,318.329 522.55,304.171 519.13,295.667Z" style="fill:rgb(38,90,117);"/>
        </g>
        <g transform="matrix(4.777128,0,0,4.777128,34.425637,288.063436)">
            <path d="M528.515,330.292C528.452,330.707 528.222,331.085 528.158,331.5C528.111,331.812 528.267,332.141 528.185,332.446C528.14,332.615 528.116,332.588 527.326,334.456C527.229,334.685 526.196,337.128 526.089,337.317C525.759,337.903 525.749,337.878 525.527,338.515C525.433,338.785 525.367,339.073 525.213,339.314C525.11,339.475 524.863,339.517 524.779,339.688C524.648,339.954 524.681,340.275 524.599,340.56C524.517,340.845 524.482,341.169 524.288,341.393C524.152,341.55 523.793,341.411 523.701,341.596C523.634,341.731 524.129,341.818 523.343,343.439C522.856,344.444 522.825,344.408 522.398,345.456C522.282,345.741 522.178,346.033 522.027,346.301C521.7,346.876 521.697,346.852 521.487,347.495C521.391,347.789 521.33,348.103 521.167,348.366C521.086,348.498 520.849,348.491 520.784,348.631C520.652,348.915 520.701,349.254 520.615,349.555C520.533,349.842 520.471,350.155 520.283,350.387C520.159,350.539 519.803,350.439 519.746,350.626C519.628,351.012 520.052,351.486 519.843,351.831C519.785,351.927 519.68,351.762 518.611,352.5C518.033,352.899 518.145,353.002 517.559,353.406C517.534,353.125 517.138,352.967 517.114,352.686C516.989,351.24 525.576,332.194 526.278,331.316C527.263,330.084 528.151,330.393 528.515,330.292Z" style="fill:rgb(30,87,118);"/>
        </g>
        <g transform="matrix(4.777128,0,0,4.777128,34.425637,288.063436)">
            <path d="M544.48,330.317C544.666,330.739 545.01,331.078 545.196,331.5C545.777,332.818 545.165,332.896 545.3,349.503C545.31,350.744 545.359,351.425 545.356,351.441C545.356,351.441 544.572,353.3 544.504,353.462L543.581,353.256C542.939,348.945 542.841,348.952 542.913,333.5C542.914,333.266 542.924,331.181 543.616,330.656C543.863,330.469 544.234,330.504 544.48,330.317Z" style="fill:rgb(45,100,126);"/>
        </g>
        <g transform="matrix(4.777128,0,0,4.777128,34.425637,288.063436)">
            <path d="M438.423,330.827C438.076,331.093 437.847,331.492 437.5,331.758C437.113,332.054 436.448,332.059 436.239,332.5C436.08,332.835 436.614,333.161 436.66,333.529C436.779,334.488 436.567,342.701 436.546,343.498C436.538,343.814 436.456,346.986 436.258,347.434C436.082,347.833 435.72,348.126 435.517,348.512C435.389,348.756 435.426,349.072 435.276,349.303C435.037,349.674 434.774,350.08 434.379,350.275C434.084,350.42 433.664,350.045 433.393,350.233C432.954,350.537 433.035,351.474 432.51,351.571C432.264,351.617 432.382,351.425 430.454,349.212C432.309,348.559 434.011,348.783 434.188,344.483C434.269,342.515 434.223,333.748 434.224,333.503C434.245,330.417 435.351,330.701 438.423,330.827Z" style="fill:rgb(42,104,140);"/>
        </g>
        <g transform="matrix(4.777128,0,0,4.777128,34.425637,288.063436)">
            <path d="M571.476,330.321C571.94,331.571 572.288,331.499 572.268,333.51C572.202,339.896 572.275,347.313 572.286,348.513C572.289,348.753 572.312,351.131 571.983,351.5C571.584,351.948 570.891,352.06 570.492,352.507C570.432,352.194 570.16,351.949 570.1,351.636C569.734,349.73 569.89,331.808 569.966,331.614C570.197,331.022 570.547,330.723 570.617,330.663C570.979,330.352 571.113,330.632 571.476,330.321Z" style="fill:rgb(57,104,129);"/>
        </g>
        <g transform="matrix(4.777128,0,0,4.777128,34.425637,288.063436)">
            <path d="M594.445,330.174C594.659,330.644 595.031,331.03 595.246,331.5C595.806,332.724 595.235,346.244 595.765,347.447C595.941,347.847 596.31,348.132 596.58,348.477C597.344,349.456 597.379,349.433 597.399,349.538C597.434,349.72 597.331,349.684 596.413,351.627C593.689,349.036 593.123,347.984 593.106,342.501C593.07,331.067 593.164,331.003 593.583,330.596C593.812,330.373 594.215,330.397 594.445,330.174Z" style="fill:rgb(32,94,127);"/>
        </g>
        <g transform="matrix(4.777128,0,0,4.777128,34.425637,288.063436)">
            <path d="M608.402,330.139C608.651,330.615 609.018,331.024 609.267,331.5C609.746,332.416 609.59,333.256 609.581,337.501C609.572,341.449 609.659,347.085 608.288,348.329C608.099,348.501 607.755,348.422 607.572,348.6C607.407,348.758 607.537,349.13 607.34,349.245C606.955,349.47 606.559,349.257 606.5,349.226C605.692,348.792 605.939,348.494 605.137,348.064C606.235,347.082 607.06,346.533 607.119,342.488C607.169,339.148 607.142,332.813 607.15,332.482C607.209,330.178 608.01,330.566 608.402,330.139Z" style="fill:rgb(37,95,127);"/>
        </g>
        <g transform="matrix(4.777128,0,0,4.777128,34.425637,288.063436)">
            <path d="M470.376,331.197C470.457,331.369 471.395,333.346 471.395,333.346C471.168,333.601 470.669,333.154 470.369,333.318C470.167,333.43 470.234,333.477 468.368,335.392C467.458,336.326 467.057,337.149 467.006,337.22C466.596,337.799 466.567,337.777 466.373,338.458C466.241,338.923 465.378,341.956 465.827,344.473C465.895,344.856 466.191,345.163 466.335,345.525C467.019,347.239 466.193,347.16 465.167,348.726C462.771,344.839 463.2,343.919 463.631,340.518C463.969,337.852 464.176,334.249 470.376,331.197Z" style="fill:rgb(35,109,153);"/>
        </g>
        <g transform="matrix(4.777128,0,0,4.777128,34.425637,288.063436)">
            <path d="M586.514,330.126C586.578,330.579 586.437,331.046 586.501,331.5C586.547,331.828 586.786,332.108 586.841,332.434C586.864,332.571 586.783,337.4 586.773,337.549C586.761,337.722 586.624,339.772 585.527,339.319C584.961,339.084 584.579,338.509 584.013,338.275C584.035,338.176 584.378,337.602 584.411,336.497C584.471,334.493 584.345,334.507 584.417,332.495C584.512,329.855 586.053,330.301 586.514,330.126Z" style="fill:rgb(38,90,119);"/>
        </g>
        <g transform="matrix(4.777128,0,0,4.777128,34.425637,288.063436)">
            <path d="M584.274,344.557C584.742,344.383 585.033,343.874 585.5,343.7C586.694,343.258 586.801,345.299 586.811,345.475C586.916,347.493 586.694,347.482 586.852,349.509C586.876,349.819 587.051,350.109 587.051,350.419C587.05,350.499 586.889,350.48 586.849,350.55C586.68,350.85 586.637,351.217 586.44,351.5C586.138,351.936 585.676,352.243 585.374,352.679C585.197,352.381 584.644,352.416 584.553,350.497C584.41,347.513 584.564,347.518 584.274,344.557Z" style="fill:rgb(39,101,132);"/>
        </g>
        <g transform="matrix(4.777128,0,0,4.777128,34.425637,288.063436)">
            <path d="M529.504,339.479C529.504,339.409 529.201,338.637 529.489,337.502C529.525,337.363 529.893,335.913 531.197,336.936C531.36,337.065 531.503,337.242 531.566,337.44C531.663,337.743 531.499,338.115 531.661,338.388C531.77,338.573 532.124,338.452 532.261,338.616C532.456,338.849 532.593,339.171 532.566,339.473C532.527,339.905 531.909,340.277 532.075,340.678C532.277,341.167 533.073,341.123 533.416,341.526C533.624,341.772 533.503,342.168 533.6,342.475C534.023,343.812 534.181,343.81 534,344.303C533.943,344.459 533.726,344.497 533.622,344.626C533.505,344.772 533.528,345.066 533.348,345.114C532.869,345.243 532.553,344.973 532.5,344.928C531.794,344.326 532.124,344.071 531.423,343.472C531.402,343.328 531.62,342.74 531.164,341.647C531.098,341.489 530.393,339.799 530.275,339.699C530.072,339.526 529.708,339.652 529.504,339.479Z" style="fill:rgb(50,107,134);"/>
        </g>
        <g transform="matrix(4.777128,0,0,4.777128,34.425637,288.063436)">
            <path d="M628.085,344.667C628.624,344.472 628.983,343.917 629.521,343.723C630.528,343.36 631.044,345.411 631.092,345.601C631.309,346.468 630.661,348.108 630.395,348.343C630.149,348.562 629.817,348.659 629.531,348.823C628.656,349.324 628.706,349.485 628.515,349.421C627.543,349.096 628.127,348.352 627.157,348.027C627.406,347.724 627.838,347.609 628.087,347.306C628.629,346.647 628.446,345.656 628.419,345.512C628.364,345.214 628.141,344.965 628.085,344.667Z" style="fill:rgb(42,100,128);"/>
        </g>
        <g transform="matrix(4.777128,0,0,4.777128,34.425637,288.063436)">
            <path d="M514.795,347.124C514.275,347.498 513.935,348.087 513.415,348.461C513.182,348.629 512.845,348.578 512.591,348.712C512.468,348.777 512.446,348.963 512.328,349.034C512.065,349.193 511.746,349.24 511.476,349.385C511.106,349.583 510.833,350.033 510.414,350.059C510.22,350.071 510.285,349.955 508.514,348.529C509.144,348.16 509.167,348.236 509.746,347.808C512.019,346.122 512.298,345.803 514.795,347.124Z" style="fill:rgb(57,117,150);"/>
        </g>
        <g transform="matrix(4.777128,0,0,4.777128,34.425637,288.063436)">
            <path d="M478.582,346.482C478.76,346.463 479.26,345.727 480.618,346.265C481.982,346.805 480.877,348.672 480.228,349.138C480.008,349.296 479.72,349.333 479.494,349.482C479.126,349.725 478.899,350.286 478.458,350.307C478.258,350.317 478.33,350.196 476.566,348.66C476.733,348.591 478.358,347.92 478.509,347.504C478.624,347.183 478.467,346.804 478.582,346.482Z" style="fill:rgb(48,107,137);"/>
        </g>
        <g transform="matrix(4.777128,0,0,4.777128,34.425637,288.063436)">
            <path d="M618.22,338.528C618.252,342.023 618.249,342.009 618.301,345.496C618.143,345.048 617.448,344.94 617.29,344.492C617.209,344.263 617.651,344.324 617.752,341.498C617.776,340.829 617.705,340.151 617.81,339.49C617.864,339.146 618.166,338.872 618.22,338.528Z" style="fill:rgb(43,117,158);"/>
        </g>
        <g transform="matrix(4.777128,0,0,4.777128,34.425637,288.063436)">
            <path d="M618.22,337.53C618.165,337.16 617.864,336.856 617.809,336.486C617.586,334.996 617.989,334.985 617.725,333.502C617.664,333.155 617.249,332.806 617.41,332.492C617.535,332.249 618.128,332.266 618.23,332.52C618.379,332.892 618.218,332.911 618.22,337.53Z" style="fill:rgb(53,128,168);"/>
        </g>
        <g transform="matrix(4.777128,0,0,4.777128,34.425637,288.063436)">
            <g transform="matrix(0.209331,0,0,0.209331,-7.206346,-60.300553)">
                <path d="M2688.13,830.24C2666.461,823.29 2666.236,824.355 2644.618,817.396C2634.762,814.223 2605.069,804.664 2516.141,801.708C2457.351,799.753 2388.031,809.059 2377.542,810.75C2320.512,819.944 2272.98,834.962 2253.765,840.994C2244.337,843.955 2204.229,858.842 2201.385,860.104C2186.645,866.646 2052.29,917.892 1924.227,1045.683C1907.329,1062.545 1815.632,1154.048 1750.347,1288.194C1725.003,1340.27 1714.96,1369.06 1712.73,1374.493C1702.063,1400.486 1703.866,1401.025 1694.01,1427.236C1688.296,1442.43 1686.615,1453.926 1680.507,1475.293C1672.524,1503.219 1668.077,1534.57 1658.56,1594.844C1654.652,1632.08 1653.793,1631.961 1653.444,1647.189C1652.927,1669.761 1653.729,1689.031 1653.182,1690.91C1653.01,1691.502 1651.783,1695.722 1646.68,1695.045C1643.257,1694.591 1643.849,1693.503 1641.159,1691.429C1637.071,1688.278 1631.783,1685.302 1626.786,1681.808C1607.466,1668.3 1604.439,1668.512 1603.706,1651.934C1600.569,1580.99 1609.432,1512.929 1612.038,1489.358C1615.668,1456.517 1629.982,1395.072 1632.892,1384.564C1654.419,1306.833 1660.443,1296.95 1669.369,1274.061C1678.754,1249.995 1679.579,1250.453 1689.391,1226.635C1691.905,1220.532 1714.83,1174.988 1723.601,1160.166C1834.673,972.471 1946.222,894.497 2014.154,848.805C2024.069,842.137 2024.208,842.482 2034.188,835.91C2065.739,815.133 2132.396,780.354 2181.494,762.669C2212.819,751.386 2212.841,751.802 2244.377,741C2271.467,731.721 2326.887,719.778 2339.744,717.951C2344.668,717.251 2394.653,710.148 2401.32,709.434C2456.064,703.564 2528.824,707.252 2539.897,707.814C2557.892,708.726 2644.235,722.105 2654.848,724.404C2685.828,731.113 2702.878,730.865 2768.999,750.214C2852.753,774.722 2956.813,828.306 2999.149,858.146C3027.285,877.978 3405.06,1107.076 3403.051,1637.585C3402.744,1718.444 3388.597,1799.816 3386.509,1809.783C3371.203,1882.825 3369.678,1882.453 3367.515,1891.061C3361.629,1914.48 3359.078,1922.011 3358.183,1924.653C3344.022,1966.46 3290.667,2142.793 3127.796,2311.349C3078.677,2362.182 3048.372,2384.919 3032.532,2397.743C2987.5,2434.202 2924.427,2472.047 2897.304,2485.951C2860.247,2504.947 2860.152,2504.592 2859.151,2505.1C2839.632,2515.01 2823.274,2521.168 2818.088,2523.596C2782.32,2540.342 2677.401,2577.087 2563.822,2587.303C2390.495,2602.894 2307.274,2580.952 2281.646,2576.261C2250.176,2570.5 2250.52,2569.36 2219.498,2561.426C2193.045,2554.66 2193.405,2553.652 2167.199,2545.959C2129.533,2534.902 2048.162,2499.825 2015.15,2481.974C1968.792,2456.905 1969.091,2456.414 1957.107,2449.902C1943.78,2442.661 1883.031,2402.432 1865.502,2388.901C1838.636,2368.164 1836.038,2371.417 1794.219,2330.966C1796.502,2327.425 1798.061,2329.048 1800.343,2325.508C1800.537,2325.208 1800.587,2325.129 1800.616,2321.043C1800.628,2319.402 1800.356,2317.764 1800.409,2316.123C1800.532,2312.352 1803.781,2299.716 1811.916,2290.923C1814.492,2288.138 1814.447,2288.204 1817.669,2286.299C1818.675,2285.704 1819.443,2284.746 1820.476,2284.2C1822.896,2282.919 1832.225,2277.982 1847.211,2276.616C1879.044,2273.715 1927.275,2293.429 1929.698,2294.466C1964.289,2309.275 1964.441,2308.667 1967.43,2309.979C2035.821,2339.993 2036.124,2339.227 2042.007,2341.972C2053.995,2347.567 2129.421,2374.763 2152.721,2379.303C2155.746,2379.796 2206.822,2388.259 2229.34,2393.21C2317.701,2412.641 2409.392,2388.342 2439.127,2380.912C2443.872,2379.726 2500.31,2362.844 2500.591,2362.46C2500.716,2362.289 2500.651,2356.045 2500.525,2355.916C2499.04,2354.394 2488.464,2354.864 2487.413,2354.911C2408.037,2358.441 2407.683,2353.57 2368.97,2360.528C2367.372,2358.119 2370.705,2353.33 2359.186,2352.669C2337.386,2351.417 2336.351,2351.366 2334.365,2351.267C2295.96,2349.363 2273.029,2331.717 2247.596,2312.942C2249.276,2308.85 2251.289,2310.325 2252.97,2306.233C2253.11,2305.891 2253.187,2305.703 2252.222,2301.676C2251.838,2300.077 2251.039,2298.586 2250.748,2296.967C2249.598,2290.565 2252.159,2274.894 2267.695,2268.142C2272.612,2266.005 2272.202,2265.285 2277.29,2263.411C2322.53,2246.74 2379.421,2270.829 2463.726,2239.895C2475.853,2235.445 2558.446,2205.14 2621.141,2203.908C2676.089,2202.829 2688.008,2207.18 2711.968,2215.941C2716.914,2217.749 2717.398,2219.633 2721.56,2216.294C2723.528,2214.715 2724.542,2212.147 2726.51,2210.568C2728.421,2211.71 2747.433,2223.062 2750.528,2224.633C2786.495,2242.885 2797.75,2270.462 2812.564,2277.19C2838.298,2288.879 2868.334,2285.847 2921.722,2321.48C2924.503,2323.336 2924.466,2323.242 2927.253,2325.032C2929.033,2326.513 2930.02,2328.804 2931.799,2330.285C2935.317,2333.214 2938.195,2331.35 2944.797,2336.606C2946.239,2337.755 2946.292,2337.586 2950.794,2339.951C2970.472,2350.284 2983.981,2366.074 2989.27,2366.69C2992.41,2367.055 2997.924,2365.148 3023.377,2340.746C3062.448,2303.29 3062.726,2303.643 3097.953,2262.59C3118.553,2238.584 3157.282,2184.661 3168.445,2166.513C3215.189,2090.518 3223.914,2062.913 3231.311,2047.822C3249.666,2010.378 3279.834,1919.818 3286.856,1881.517C3291.293,1857.317 3298.017,1831.011 3300.952,1809.798C3313.431,1719.587 3313.52,1656.146 3310.517,1608.844C3296.965,1395.404 3227.165,1274.542 3201.128,1225.804C3192.037,1208.787 3191.736,1209.084 3181.975,1192.323C3177.576,1184.769 3177.324,1185.023 3172.641,1177.634C3169.241,1172.268 3147.612,1138.136 3126.488,1113.016C3126.439,1112.958 3049.997,1008.83 2921.322,927.447C2852.196,883.726 2825.605,871.004 2793.271,858.784C2791.853,858.134 2790.635,857.71 2789.594,857.439C2787.076,856.544 2784.322,855.612 2781.385,854.656C2747.494,843.627 2689.169,829.333 2688.13,830.24Z" style="fill:rgb(72,179,79);"/>
            </g>
        </g>
        <g transform="matrix(4.777128,0,0,4.777128,34.425637,288.063436)">
            <g transform="matrix(0.209331,0,0,0.209331,-7.206346,-60.300553)">
                <path d="M2927.253,2325.032C2929.652,2325.274 2929.277,2326.306 2931.662,2326.547C2932.072,2326.588 2934.051,2326.788 2936.782,2325.994C2942.236,2324.407 2997.207,2277.205 3049.528,2214.233C3107.515,2144.442 3152.153,2060.405 3165.832,2029.326C3174.585,2009.437 3255.801,1849.304 3253.83,1623.243C3253.136,1543.744 3238.535,1467.434 3233.786,1446.263C3201.337,1301.612 3144.866,1195.61 3076.229,1106.473C2968.041,965.972 2836.245,896.82 2827.176,891.514C2812.827,883.119 2812.558,883.816 2808.256,881.459C2758.174,854.021 2717.744,841.178 2688.13,830.24C2689.169,829.333 2747.494,843.627 2781.385,854.656C2784.322,855.612 2787.076,856.544 2789.594,857.439C2790.884,857.897 2792.112,858.347 2793.271,858.784C2825.605,871.004 2852.196,883.726 2921.322,927.447C3049.997,1008.83 3126.439,1112.958 3126.488,1113.016C3147.612,1138.136 3169.241,1172.268 3172.641,1177.634C3177.324,1185.023 3177.576,1184.769 3181.975,1192.323C3191.736,1209.084 3192.037,1208.787 3201.128,1225.804C3227.165,1274.542 3296.965,1395.404 3310.517,1608.844C3313.52,1656.146 3313.431,1719.587 3300.952,1809.798C3298.017,1831.011 3291.293,1857.317 3286.856,1881.517C3279.834,1919.818 3249.666,2010.378 3231.311,2047.822C3223.914,2062.913 3215.189,2090.518 3168.445,2166.513C3157.282,2184.661 3118.553,2238.584 3097.953,2262.59C3062.726,2303.643 3062.448,2303.29 3023.377,2340.746C2997.924,2365.148 2992.41,2367.055 2989.27,2366.69C2983.981,2366.074 2970.472,2350.284 2950.794,2339.951C2946.292,2337.586 2946.239,2337.755 2944.797,2336.606C2938.195,2331.35 2935.317,2333.214 2931.799,2330.285C2930.02,2328.804 2929.033,2326.513 2927.253,2325.032Z" style="fill:rgb(36,99,48);"/>
            </g>
        </g>
        <g transform="matrix(4.777128,0,0,4.777128,34.425637,288.063436)">
            <g transform="matrix(0.209331,0,0,0.209331,-7.206346,-60.300553)">
                <path d="M2425.343,1451.323L2422.394,1441.577C2423.859,1440.893 2424.586,1439.073 2426.051,1438.389C2429.002,1437.011 2428.915,1438.345 2430.924,1440.795C2432.797,1443.079 2433.329,1442.719 2434.488,1446.758C2436.571,1454.02 2437.947,1453.417 2439.996,1460.698C2440.4,1462.137 2440.404,1463.696 2440.999,1465.067C2441.273,1465.698 2442.169,1465.878 2442.505,1466.478C2443.5,1468.254 2443.112,1468.404 2451.778,1490.171C2456.476,1501.971 2454.721,1502.437 2455.174,1503.434C2455.477,1504.101 2456.717,1503.849 2457.115,1504.463C2457.508,1505.07 2456.681,1505.299 2459.664,1513.132C2460.384,1515.023 2461.596,1516.7 2462.347,1518.58C2465.499,1526.477 2463.935,1526.786 2464.23,1527.449C2464.541,1528.148 2465.744,1528.065 2466.147,1528.716C2466.297,1528.959 2468.664,1536.213 2468.845,1537.046C2469.168,1538.534 2468.842,1540.187 2469.477,1541.571C2469.812,1542.301 2471.078,1542.186 2471.512,1542.862C2471.78,1543.278 2482.155,1573.579 2490.709,1595.085C2492.414,1599.372 2491.295,1599.636 2492.95,1603.911C2493.011,1604.068 2495.644,1607.825 2497.263,1613.582C2497.648,1614.95 2497.793,1616.391 2498.31,1617.714C2498.595,1618.445 2499.477,1618.89 2499.635,1619.658C2499.847,1620.688 2499.226,1621.757 2499.357,1622.8C2499.567,1624.474 2501.117,1626.075 2500.646,1627.696C2500.453,1628.36 2499.052,1633.185 2492.791,1631.301C2491.891,1631.03 2492.005,1630.93 2482.169,1626.286C2487.143,1623.492 2487.315,1623.73 2487.515,1623.282C2489.236,1619.434 2477.617,1593.476 2474.47,1584.553C2467.69,1565.329 2467.249,1565.579 2460.298,1546.333C2431.922,1467.767 2430.502,1468.344 2428.734,1461.307C2427.444,1456.168 2427.508,1456.209 2425.343,1451.323Z" style="fill:rgb(52,151,199);"/>
            </g>
        </g>
        <g transform="matrix(4.777128,0,0,4.777128,34.425637,288.063436)">
            <g transform="matrix(0.209331,0,0,0.209331,-7.206346,-60.300553)">
                <path d="M2387.373,1339.85C2423.426,1340.288 2423.365,1339.515 2449.268,1339.892C2467.335,1340.154 2466.678,1344.703 2474.022,1365.012C2481.295,1385.123 2483.628,1389.425 2485.605,1394.684C2512.047,1465.047 2512.595,1464.74 2514.828,1470.874C2522.581,1492.168 2522.959,1491.928 2530.829,1513.274C2562.923,1600.326 2567.595,1608.455 2576.381,1633.465C2583.162,1652.769 2583.632,1652.514 2590.793,1671.754C2603.88,1706.915 2604.214,1706.735 2605.314,1709.801C2640.096,1806.714 2642.889,1805.687 2644.475,1814.487C2644.609,1815.235 2645.721,1821.405 2640.067,1822.897C2639.243,1823.115 2595.046,1823.87 2578.247,1823.522C2565.019,1823.248 2563.498,1820.66 2563.128,1820.514C2564.144,1818.251 2566.289,1816.618 2567.304,1814.356C2569.049,1810.467 2567.493,1810.458 2565.247,1804.357C2564.719,1802.921 2526.839,1700.559 2525.86,1699.532C2524.483,1698.089 2522.547,1696.586 2520.559,1696.754C2518.157,1696.958 2516.778,1700.301 2514.376,1700.504C2508.383,1697.698 2508.551,1696.568 2497.039,1696.57C2484.812,1696.571 2348.287,1696.588 2344.198,1696.761C2326.786,1697.497 2329.328,1707.594 2316.019,1742.913C2301.316,1781.932 2301.869,1782.08 2300.536,1785.446C2288.286,1816.362 2289.969,1824.133 2277.462,1825.546C2274.903,1825.835 2220.724,1825.795 2220.038,1825.784C2205.266,1825.526 2204.28,1821.423 2203.465,1820.957C2208.079,1818.205 2207.409,1817.395 2211.978,1814.67C2214.43,1813.207 2214.683,1814.346 2214.838,1814.173C2215.821,1813.077 2215.783,1811.384 2216.195,1809.971C2216.334,1809.497 2217.169,1807.163 2218.611,1803.212C2219.357,1801.483 2220.074,1799.89 2221.057,1796.537C2221.13,1796.29 2221.204,1796.033 2221.279,1795.766C2223.797,1786.864 2226.434,1778.03 2226.81,1776.977C2227.103,1776.156 2385.076,1356.201 2386.811,1350.966C2386.817,1350.948 2386.821,1350.934 2386.824,1350.923L2387.373,1339.85ZM2482.169,1626.286C2492.005,1630.93 2491.891,1631.03 2492.791,1631.301C2499.052,1633.185 2500.453,1628.36 2500.646,1627.696C2501.117,1626.075 2499.567,1624.474 2499.357,1622.8C2499.226,1621.757 2499.847,1620.688 2499.635,1619.658C2499.477,1618.89 2498.595,1618.445 2498.31,1617.714C2497.793,1616.391 2497.648,1614.95 2497.263,1613.582C2495.644,1607.825 2493.011,1604.068 2492.95,1603.911C2491.295,1599.636 2492.414,1599.372 2490.709,1595.085C2482.155,1573.579 2471.78,1543.278 2471.512,1542.862C2471.078,1542.186 2469.812,1542.301 2469.477,1541.571C2468.842,1540.187 2469.168,1538.534 2468.845,1537.046C2468.664,1536.213 2466.297,1528.959 2466.147,1528.716C2465.744,1528.065 2464.541,1528.148 2464.23,1527.449C2463.935,1526.786 2465.499,1526.477 2462.347,1518.58C2461.596,1516.7 2460.384,1515.023 2459.664,1513.132C2456.681,1505.299 2457.508,1505.07 2457.115,1504.463C2456.717,1503.849 2455.477,1504.101 2455.174,1503.434C2454.721,1502.437 2456.476,1501.971 2451.778,1490.171C2443.112,1468.404 2443.5,1468.254 2442.505,1466.478C2442.169,1465.878 2441.273,1465.698 2440.999,1465.067C2440.404,1463.696 2440.4,1462.137 2439.996,1460.698C2437.947,1453.417 2436.571,1454.02 2434.488,1446.758C2433.329,1442.719 2432.797,1443.079 2430.924,1440.795C2428.915,1438.345 2429.002,1437.011 2426.051,1438.389C2424.586,1439.073 2423.859,1440.893 2422.394,1441.577L2425.343,1451.323C2418.393,1452.531 2418.194,1452.087 2417.903,1452.616C2415.815,1456.402 2416.947,1456.684 2415.876,1460.87C2413.678,1469.468 2403.965,1496.47 2402.86,1499.541C2372.71,1583.356 2372.304,1583.085 2369.834,1590.414C2359.806,1620.163 2359.4,1620.22 2360.09,1622.839C2360.197,1623.242 2363.285,1626.764 2363.637,1626.892C2364.801,1627.315 2441.933,1627.104 2482.169,1626.286Z" style="fill:rgb(52,151,199);"/>
            </g>
        </g>
        <g transform="matrix(4.777128,0,0,4.777128,34.425637,288.063436)">
            <g transform="matrix(0.209331,0,0,0.209331,-7.206346,-60.300553)">
                <path d="M1794.219,2330.966C1779.793,2315.406 1764.125,2303.473 1762.869,2287.162C1760.298,2253.794 1794.638,2241.393 1813.937,2241.73C1825.109,2241.926 1859.551,2242.528 1947.271,2283.349C1956.126,2287.47 1968.665,2292.281 1970.981,2293.349C1992.341,2303.195 1992.662,2302.239 2013.987,2312.302C2036.291,2322.828 2090.746,2342.34 2110.514,2347.834C2194.658,2371.22 2229.986,2375.304 2301.054,2367.443C2348.292,2362.217 2356.197,2363.782 2368.97,2360.528C2407.683,2353.57 2408.037,2358.441 2487.413,2354.911C2488.464,2354.864 2499.04,2354.394 2500.525,2355.916C2500.651,2356.045 2500.716,2362.289 2500.591,2362.46C2500.31,2362.844 2443.872,2379.726 2439.127,2380.912C2409.392,2388.342 2317.701,2412.641 2229.34,2393.21C2206.822,2388.259 2155.746,2379.796 2152.721,2379.303C2129.421,2374.763 2053.995,2347.567 2042.007,2341.972C2036.124,2339.227 2035.821,2339.993 1967.43,2309.979C1964.441,2308.667 1964.289,2309.275 1929.698,2294.466C1927.275,2293.429 1879.044,2273.715 1847.211,2276.616C1832.225,2277.982 1822.896,2282.919 1820.476,2284.2C1819.443,2284.746 1818.675,2285.704 1817.669,2286.299C1814.447,2288.204 1814.492,2288.138 1811.916,2290.923C1803.781,2299.716 1800.532,2312.352 1800.409,2316.123C1800.356,2317.764 1800.628,2319.402 1800.616,2321.043C1800.587,2325.129 1800.537,2325.208 1800.343,2325.508C1798.061,2329.048 1796.502,2327.425 1794.219,2330.966Z" style="fill:rgb(47,127,60);"/>
            </g>
        </g>
    </g>
</svg>
